<svg width="129" height="71" viewBox="0 0 129 71" fill="none" xmlns="http://www.w3.org/2000/svg">
<g filter="url(#filter0_d_84_2)">
<path d="M33.384 0.799995C34.024 0.799995 34.344 1.12 34.344 1.75999V5.792C34.344 6.432 34.024 6.752 33.384 6.752H20.712C20.456 6.752 20.328 6.88 20.328 7.136V67.04C20.328 67.68 20.008 68 19.368 68H14.472C13.832 68 13.512 67.68 13.512 67.04V7.136C13.512 6.88 13.384 6.752 13.128 6.752H1.224C0.584 6.752 0.264 6.432 0.264 5.792V1.75999C0.264 1.12 0.584 0.799995 1.224 0.799995H33.384ZM84.8258 66.848C84.9538 66.976 85.0178 67.168 85.0178 67.424C85.0178 67.552 84.9538 67.68 84.8258 67.808C84.6978 67.936 84.5058 68 84.2498 68H79.0658C78.5538 68 78.1698 67.808 77.9138 67.424L73.9778 61.664C73.9138 61.536 73.8178 61.472 73.6898 61.472C73.5618 61.472 73.4658 61.504 73.4018 61.568C71.0338 64.128 68.5698 65.984 66.0098 67.136C63.5138 68.288 60.6978 68.864 57.5618 68.864C52.6338 68.864 48.7298 67.488 45.8498 64.736C42.9698 61.984 41.5298 58.08 41.5298 53.024C41.5298 48.736 42.5538 45.024 44.6018 41.888C46.6498 38.688 49.4658 35.584 53.0498 32.576C53.2418 32.512 53.2738 32.352 53.1458 32.096C50.8418 28.64 49.1458 25.984 48.0578 24.128C46.9698 22.208 46.2338 20.608 45.8498 19.328C45.5298 17.984 45.3698 16.48 45.3698 14.816C45.3698 10.336 46.6498 6.752 49.2098 4.064C51.7698 1.376 55.1298 0.0319996 59.2898 0.0319996C63.4498 0.0319996 66.8418 1.408 69.4658 4.16C72.1538 6.848 73.4978 10.368 73.4978 14.72C73.4978 18.624 72.5058 21.984 70.5218 24.8C68.5378 27.552 65.6898 30.496 61.9778 33.632C61.7858 33.696 61.7538 33.856 61.8818 34.112C64.4418 37.696 66.3298 40.416 67.5458 42.272L73.4978 50.72C73.5618 50.784 73.6578 50.816 73.7858 50.816C73.9138 50.816 74.0098 50.784 74.0738 50.72C74.9698 49.376 76.5058 46.784 78.6818 42.944C78.8098 42.688 79.0018 42.528 79.2578 42.464C79.5138 42.4 79.7698 42.432 80.0258 42.56L83.6738 44.672C84.1858 44.992 84.2818 45.44 83.9618 46.016C81.9138 49.792 79.8338 53.152 77.7218 56.096C77.6578 56.288 77.6578 56.48 77.7218 56.672L84.8258 66.848ZM59.4818 6.272C57.3058 6.272 55.5458 7.072 54.2018 8.672C52.8578 10.208 52.1858 12.32 52.1858 15.008C52.1858 16.8 52.5058 18.496 53.1458 20.096C53.8498 21.696 55.4178 24.352 57.8498 28.064C57.9778 28.32 58.1378 28.352 58.3298 28.16C61.0178 25.856 63.0658 23.68 64.4738 21.632C65.9458 19.584 66.6818 17.28 66.6818 14.72C66.6818 12.16 66.0098 10.112 64.6658 8.576C63.3218 7.04 61.5938 6.272 59.4818 6.272ZM58.2338 62.912C60.3458 62.912 62.3298 62.4 64.1858 61.376C66.0418 60.288 67.9298 58.656 69.8498 56.48C69.9778 56.288 69.9778 56.096 69.8498 55.904L65.2418 49.28L57.2738 38.048C57.1458 37.856 56.9858 37.856 56.7938 38.048C54.0418 40.416 51.9298 42.752 50.4578 45.056C49.0498 47.36 48.3458 49.952 48.3458 52.832C48.3458 55.84 49.2098 58.272 50.9378 60.128C52.6658 61.984 55.0978 62.912 58.2338 62.912ZM126.009 0.799995C126.649 0.799995 126.969 1.12 126.969 1.75999V5.792C126.969 6.432 126.649 6.752 126.009 6.752H113.337C113.081 6.752 112.953 6.88 112.953 7.136V67.04C112.953 67.68 112.633 68 111.993 68H107.097C106.457 68 106.137 67.68 106.137 67.04V7.136C106.137 6.88 106.009 6.752 105.753 6.752H93.849C93.209 6.752 92.889 6.432 92.889 5.792V1.75999C92.889 1.12 93.209 0.799995 93.849 0.799995H126.009Z" fill="#171717"/>
</g>
<defs>
<filter id="filter0_d_84_2" x="0.26416" y="0.0319824" width="128.705" height="70.832" filterUnits="userSpaceOnUse" color-interpolation-filters="sRGB">
<feFlood flood-opacity="0" result="BackgroundImageFix"/>
<feColorMatrix in="SourceAlpha" type="matrix" values="0 0 0 0 0 0 0 0 0 0 0 0 0 0 0 0 0 0 127 0" result="hardAlpha"/>
<feOffset dx="2" dy="2"/>
<feComposite in2="hardAlpha" operator="out"/>
<feColorMatrix type="matrix" values="0 0 0 0 0.945833 0 0 0 0 0.945833 0 0 0 0 0.945833 0 0 0 1 0"/>
<feBlend mode="normal" in2="BackgroundImageFix" result="effect1_dropShadow_84_2"/>
<feBlend mode="normal" in="SourceGraphic" in2="effect1_dropShadow_84_2" result="shape"/>
</filter>
</defs>
</svg>
